<svg width="32" height="32" viewBox="0 0 32 32" fill="none" xmlns="http://www.w3.org/2000/svg">
  <rect width="32" height="32" rx="8" fill="#18181B"/>
  <path d="M16 6C10.477 6 6 9.918 6 14.667c0 2.56 1.272 4.859 3.293 6.453-.14 1.72-.88 3.213-1.96 4.213-.267.247-.333.627-.173.953.16.32.48.547.84.547 2.36 0 4.347-.973 5.68-2.24.76.107 1.547.16 2.32.16 5.523 0 10-3.92 10-8.667S21.523 6 16 6z" fill="white"/>
  <circle cx="11" cy="14.5" r="1.5" fill="#18181B"/>
  <circle cx="16" cy="14.5" r="1.5" fill="#18181B"/>
  <circle cx="21" cy="14.5" r="1.5" fill="#18181B"/>
</svg>
